<svg width="58" height="52" viewBox="0 0 58 52" fill="none" xmlns="http://www.w3.org/2000/svg">
<path d="M1.39968 49V40.329H3.63568C3.97368 40.329 4.32468 40.3593 4.68868 40.42C5.05268 40.472 5.39068 40.5717 5.70268 40.719C6.01468 40.8663 6.30068 41.057 6.56068 41.291C6.82068 41.5163 7.04168 41.7893 7.22368 42.11C7.41435 42.4307 7.56168 42.7947 7.66568 43.202C7.77835 43.6007 7.83468 44.047 7.83468 44.541C7.83468 45.1477 7.76535 45.6937 7.62668 46.179C7.48801 46.6557 7.29301 47.0717 7.04168 47.427C6.79901 47.7823 6.50868 48.077 6.17068 48.311C5.83268 48.545 5.46868 48.7183 5.07868 48.831C4.87935 48.8917 4.64101 48.935 4.36368 48.961C4.09501 48.987 3.85235 49 3.63568 49H1.39968ZM2.43968 48.103H3.50568C3.69635 48.103 3.91301 48.0943 4.15568 48.077C4.39835 48.051 4.61935 47.999 4.81868 47.921C5.07868 47.8083 5.32135 47.661 5.54668 47.479C5.78068 47.297 5.98435 47.076 6.15768 46.816C6.33968 46.5473 6.47835 46.231 6.57368 45.867C6.67768 45.503 6.72968 45.0783 6.72968 44.593C6.72968 43.839 6.61268 43.2323 6.37868 42.773C6.15335 42.3137 5.84135 41.954 5.44268 41.694C5.19135 41.5293 4.89235 41.4123 4.54568 41.343C4.20768 41.265 3.87835 41.226 3.55768 41.226H2.43968V48.103ZM12.7502 49L12.6982 48.467C12.4815 48.6837 12.2302 48.8527 11.9442 48.974C11.6669 49.0867 11.3592 49.143 11.0212 49.143C10.7525 49.143 10.4882 49.0997 10.2282 49.013C9.97687 48.935 9.75154 48.818 9.5522 48.662C9.36154 48.4973 9.20554 48.2937 9.0842 48.051C8.96287 47.8083 8.9022 47.5267 8.9022 47.206C8.9022 46.764 9.0192 46.4 9.2532 46.114C9.49587 45.828 9.7992 45.6027 10.1632 45.438C10.5272 45.2647 10.9302 45.1433 11.3722 45.074C11.8142 45.0047 12.2432 44.97 12.6592 44.97V44.892C12.6592 44.372 12.5465 43.9993 12.3212 43.774C12.1045 43.5487 11.7882 43.436 11.3722 43.436C11.0862 43.436 10.8219 43.501 10.5792 43.631C10.3452 43.7523 10.1459 43.917 9.9812 44.125L9.2792 43.631C9.53054 43.293 9.8252 43.046 10.1632 42.89C10.5099 42.7253 10.9432 42.643 11.4632 42.643C12.1565 42.643 12.6939 42.8207 13.0752 43.176C13.4652 43.5313 13.6602 44.125 13.6602 44.957V49H12.7502ZM12.6592 45.763C12.3732 45.7717 12.0699 45.7933 11.7492 45.828C11.4285 45.8627 11.1295 45.932 10.8522 46.036C10.5835 46.1313 10.3582 46.2743 10.1762 46.465C10.0029 46.6557 9.9162 46.907 9.9162 47.219C9.9162 47.4183 9.9552 47.5873 10.0332 47.726C10.1112 47.8647 10.2065 47.9817 10.3192 48.077C10.4405 48.1637 10.5705 48.2287 10.7092 48.272C10.8565 48.3067 10.9995 48.324 11.1382 48.324C11.4415 48.324 11.7189 48.2633 11.9702 48.142C12.2302 48.012 12.4599 47.8603 12.6592 47.687V45.763ZM15.7496 47.466C15.897 47.7433 16.0833 47.96 16.3086 48.116C16.5426 48.2633 16.8546 48.337 17.2446 48.337C18.094 48.337 18.5186 48.0337 18.5186 47.427C18.5186 47.245 18.4883 47.0933 18.4276 46.972C18.3756 46.842 18.2846 46.7293 18.1546 46.634C18.0333 46.53 17.873 46.4347 17.6736 46.348C17.4743 46.2527 17.2316 46.153 16.9456 46.049C16.6336 45.945 16.3693 45.8367 16.1526 45.724C15.936 45.6027 15.7583 45.4727 15.6196 45.334C15.481 45.1953 15.377 45.0393 15.3076 44.866C15.247 44.6927 15.2166 44.489 15.2166 44.255C15.2166 43.7523 15.3986 43.358 15.7626 43.072C16.1353 42.786 16.625 42.643 17.2316 42.643C17.7343 42.643 18.1546 42.7297 18.4926 42.903C18.8306 43.0677 19.1166 43.306 19.3506 43.618L18.6486 44.177C18.4753 43.969 18.2716 43.7957 18.0376 43.657C17.8036 43.5183 17.5393 43.449 17.2446 43.449C16.8806 43.449 16.6076 43.5227 16.4256 43.67C16.2523 43.8087 16.1656 43.982 16.1656 44.19C16.1656 44.32 16.1873 44.437 16.2306 44.541C16.2826 44.6363 16.3693 44.7273 16.4906 44.814C16.612 44.892 16.768 44.9743 16.9586 45.061C17.158 45.139 17.4093 45.23 17.7126 45.334C18.2846 45.5333 18.718 45.7847 19.0126 46.088C19.3073 46.3913 19.4546 46.7943 19.4546 47.297C19.4546 47.5917 19.3983 47.856 19.2856 48.09C19.173 48.3153 19.017 48.506 18.8176 48.662C18.627 48.818 18.3973 48.935 18.1286 49.013C17.86 49.0997 17.5653 49.143 17.2446 49.143C16.6293 49.143 16.1483 49.0303 15.8016 48.805C15.455 48.5797 15.1776 48.2937 14.9696 47.947L15.7496 47.466ZM20.7691 49V40.381L21.7701 40.251V43.293C22.0214 43.111 22.3074 42.9593 22.6281 42.838C22.9487 42.708 23.3084 42.643 23.7071 42.643C24.5477 42.643 25.1414 42.8553 25.4881 43.28C25.8434 43.7047 26.0211 44.3243 26.0211 45.139V49H25.0071V45.126C25.0071 44.554 24.8901 44.1337 24.6561 43.865C24.4221 43.5877 24.0451 43.449 23.5251 43.449C23.1957 43.449 22.8751 43.527 22.5631 43.683C22.2597 43.8303 21.9954 43.9863 21.7701 44.151V49H20.7691ZM28.7779 42.994C29.0465 42.8727 29.3022 42.786 29.5449 42.734C29.7962 42.682 30.0432 42.656 30.2859 42.656C30.6845 42.656 31.0572 42.7297 31.4039 42.877C31.7505 43.0157 32.0452 43.2237 32.2879 43.501C32.5392 43.7697 32.7342 44.1077 32.8729 44.515C33.0202 44.9137 33.0939 45.3773 33.0939 45.906C33.0939 46.4 33.0159 46.8463 32.8599 47.245C32.7039 47.6437 32.4872 47.986 32.2099 48.272C31.9325 48.5493 31.6032 48.766 31.2219 48.922C30.8492 49.0693 30.4419 49.143 29.9999 49.143C29.5232 49.143 29.0942 49.0953 28.7129 49C28.3402 48.896 28.0282 48.7877 27.7769 48.675V40.381L28.7779 40.251V42.994ZM28.7779 48.116C28.9425 48.1853 29.1202 48.2417 29.3109 48.285C29.5015 48.3283 29.6835 48.35 29.8569 48.35C30.2035 48.35 30.5155 48.2937 30.7929 48.181C31.0789 48.0597 31.3172 47.8907 31.5079 47.674C31.7072 47.4573 31.8589 47.1973 31.9629 46.894C32.0669 46.5907 32.1189 46.2527 32.1189 45.88C32.1189 45.5073 32.0669 45.1737 31.9629 44.879C31.8589 44.5757 31.7159 44.32 31.5339 44.112C31.3519 43.904 31.1395 43.748 30.8969 43.644C30.6542 43.5313 30.3899 43.475 30.1039 43.475C29.8959 43.475 29.6792 43.5053 29.4539 43.566C29.2285 43.618 29.0032 43.7177 28.7779 43.865V48.116ZM35.9203 48.87C35.5649 48.6793 35.2659 48.4323 35.0233 48.129C34.7806 47.817 34.5986 47.466 34.4773 47.076C34.3559 46.6773 34.2953 46.2743 34.2953 45.867C34.2953 45.4597 34.3516 45.0653 34.4643 44.684C34.5856 44.294 34.7676 43.9473 35.0103 43.644C35.2529 43.3407 35.5519 43.098 35.9073 42.916C36.2713 42.734 36.6959 42.643 37.1813 42.643C37.6579 42.643 38.0783 42.7383 38.4423 42.929C38.8063 43.111 39.1053 43.3537 39.3393 43.657C39.5819 43.9603 39.7639 44.307 39.8853 44.697C40.0066 45.087 40.0673 45.4857 40.0673 45.893C40.0673 46.3003 40.0066 46.699 39.8853 47.089C39.7639 47.479 39.5819 47.8257 39.3393 48.129C39.1053 48.4323 38.8063 48.6793 38.4423 48.87C38.0783 49.052 37.6579 49.143 37.1813 49.143C36.7046 49.143 36.2843 49.052 35.9203 48.87ZM35.7513 47.57C35.9159 47.7953 36.1153 47.9817 36.3493 48.129C36.5919 48.2677 36.8693 48.337 37.1813 48.337C37.5019 48.337 37.7793 48.2677 38.0133 48.129C38.2559 47.9817 38.4553 47.7953 38.6113 47.57C38.7759 47.336 38.8973 47.0717 38.9753 46.777C39.0533 46.4823 39.0923 46.1833 39.0923 45.88C39.0923 45.5767 39.0533 45.2777 38.9753 44.983C38.8973 44.6883 38.7759 44.4283 38.6113 44.203C38.4553 43.969 38.2559 43.7827 38.0133 43.644C37.7793 43.5053 37.5019 43.436 37.1813 43.436C36.8606 43.436 36.5789 43.5053 36.3363 43.644C36.1023 43.7827 35.9073 43.969 35.7513 44.203C35.5953 44.4283 35.4783 44.6883 35.4003 44.983C35.3223 45.269 35.2833 45.5637 35.2833 45.867C35.2833 46.179 35.3223 46.4823 35.4003 46.777C35.4783 47.0717 35.5953 47.336 35.7513 47.57ZM45.009 49L44.957 48.467C44.7403 48.6837 44.489 48.8527 44.203 48.974C43.9257 49.0867 43.618 49.143 43.28 49.143C43.0113 49.143 42.747 49.0997 42.487 49.013C42.2357 48.935 42.0103 48.818 41.811 48.662C41.6203 48.4973 41.4643 48.2937 41.343 48.051C41.2217 47.8083 41.161 47.5267 41.161 47.206C41.161 46.764 41.278 46.4 41.512 46.114C41.7547 45.828 42.058 45.6027 42.422 45.438C42.786 45.2647 43.189 45.1433 43.631 45.074C44.073 45.0047 44.502 44.97 44.918 44.97V44.892C44.918 44.372 44.8053 43.9993 44.58 43.774C44.3633 43.5487 44.047 43.436 43.631 43.436C43.345 43.436 43.0807 43.501 42.838 43.631C42.604 43.7523 42.4047 43.917 42.24 44.125L41.538 43.631C41.7893 43.293 42.084 43.046 42.422 42.89C42.7687 42.7253 43.202 42.643 43.722 42.643C44.4153 42.643 44.9527 42.8207 45.334 43.176C45.724 43.5313 45.919 44.125 45.919 44.957V49H45.009ZM44.918 45.763C44.632 45.7717 44.3287 45.7933 44.008 45.828C43.6873 45.8627 43.3883 45.932 43.111 46.036C42.8423 46.1313 42.617 46.2743 42.435 46.465C42.2617 46.6557 42.175 46.907 42.175 47.219C42.175 47.4183 42.214 47.5873 42.292 47.726C42.37 47.8647 42.4653 47.9817 42.578 48.077C42.6993 48.1637 42.8293 48.2287 42.968 48.272C43.1153 48.3067 43.2583 48.324 43.397 48.324C43.7003 48.324 43.9777 48.2633 44.229 48.142C44.489 48.012 44.7187 47.8603 44.918 47.687V45.763ZM47.6704 49V42.864L48.5804 42.734L48.6584 43.345C48.8231 43.1717 49.0354 43.0113 49.2954 42.864C49.5554 42.7167 49.8198 42.643 50.0884 42.643C50.2791 42.643 50.4524 42.656 50.6084 42.682C50.7731 42.708 50.8988 42.734 50.9854 42.76L50.8034 43.683C50.5868 43.5877 50.3138 43.54 49.9844 43.54C49.7331 43.54 49.4904 43.6093 49.2564 43.748C49.0311 43.8867 48.8361 44.0297 48.6714 44.177V49H47.6704ZM56.7899 40.251V49H55.8669L55.7889 48.493C55.5636 48.727 55.3166 48.896 55.0479 49C54.7879 49.0953 54.5019 49.143 54.1899 49.143C53.7479 49.143 53.3536 49.0607 53.0069 48.896C52.6689 48.7227 52.3829 48.4887 52.1489 48.194C51.9149 47.8993 51.7373 47.5527 51.6159 47.154C51.4946 46.7467 51.4339 46.309 51.4339 45.841C51.4339 45.4423 51.4946 45.0523 51.6159 44.671C51.7459 44.281 51.9323 43.9387 52.1749 43.644C52.4263 43.3407 52.7383 43.098 53.1109 42.916C53.4836 42.734 53.9169 42.643 54.4109 42.643C54.7229 42.643 54.9916 42.669 55.2169 42.721C55.4423 42.7643 55.6329 42.8163 55.7889 42.877V40.381L56.7899 40.251ZM55.7889 43.748C55.7369 43.7133 55.6633 43.6787 55.5679 43.644C55.4813 43.6093 55.3816 43.579 55.2689 43.553C55.1563 43.5183 55.0393 43.4923 54.9179 43.475C54.7966 43.4577 54.6796 43.449 54.5669 43.449C54.2029 43.449 53.8866 43.5183 53.6179 43.657C53.3493 43.7957 53.1239 43.982 52.9419 44.216C52.7686 44.4413 52.6386 44.7013 52.5519 44.996C52.4653 45.2907 52.4219 45.5897 52.4219 45.893C52.4219 46.2397 52.4609 46.5647 52.5389 46.868C52.6169 47.1627 52.7339 47.4183 52.8899 47.635C53.0546 47.8517 53.2539 48.025 53.4879 48.155C53.7306 48.2763 54.0166 48.337 54.3459 48.337C54.6059 48.337 54.8616 48.285 55.1129 48.181C55.3643 48.0683 55.5896 47.8863 55.7889 47.635V43.748Z" fill="#004719"/>
<path d="M37.0526 10.4774L29 2.50509L16.3198 15.0589H19.1579V29.2319H24.5263V18.6021H33.4737V29.2319H38.8421V15.0589H41.6802L38.8421 12.2491V6.20071H37.0526V10.4774ZM12 16.8305L29 0L35.2632 6.20071V4.42908H40.6316V11.5156L46 16.8305H40.6316V31H31.6842V20.3702H26.3158V31H17.3684V16.8305H12Z" fill="#004719"/>
<rect x="24.5" y="12.5" width="9" height="2" stroke="#004719"/>
<line x1="26.4002" y1="19.7781" x2="32.4748" y2="30.7371" stroke="#004719"/>
<line x1="25.5256" y1="30.7371" x2="31.6002" y2="19.7781" stroke="#004719"/>
</svg>
