<svg width="68" height="58" viewBox="0 0 68 58" fill="none" xmlns="http://www.w3.org/2000/svg">
<path d="M1.44851 55V46.368L2.48851 46.251V54.103H6.55751L6.44051 55H1.44851ZM7.9483 51.841C7.9483 52.621 8.12597 53.232 8.4813 53.674C8.83664 54.116 9.3523 54.337 10.0283 54.337C10.4183 54.337 10.7476 54.2417 11.0163 54.051C11.285 53.8603 11.5016 53.6263 11.6663 53.349L12.3293 53.791C12.104 54.181 11.8093 54.506 11.4453 54.766C11.09 55.0173 10.609 55.143 10.0023 55.143C9.5343 55.143 9.11397 55.0737 8.7413 54.935C8.36864 54.7877 8.04797 54.5797 7.7793 54.311C7.5193 54.0337 7.31564 53.6913 7.1683 53.284C7.02964 52.8767 6.9603 52.4043 6.9603 51.867C6.9603 51.373 7.0253 50.931 7.1553 50.541C7.29397 50.1423 7.4803 49.8043 7.7143 49.527C7.95697 49.241 8.2473 49.0243 8.5853 48.877C8.93197 48.721 9.3133 48.643 9.7293 48.643C10.1886 48.643 10.5873 48.721 10.9253 48.877C11.272 49.033 11.558 49.254 11.7833 49.54C12.0086 49.8173 12.1776 50.1553 12.2903 50.554C12.403 50.944 12.4593 51.373 12.4593 51.841H7.9483ZM11.3283 51.048C11.3196 50.7793 11.2676 50.5453 11.1723 50.346C11.077 50.138 10.9556 49.969 10.8083 49.839C10.661 49.7003 10.492 49.6007 10.3013 49.54C10.1106 49.4707 9.91997 49.436 9.7293 49.436C9.3133 49.436 8.95364 49.5617 8.6503 49.813C8.35564 50.0557 8.15197 50.4673 8.0393 51.048H11.3283ZM17.382 55L17.33 54.467C17.1134 54.6837 16.862 54.8527 16.576 54.974C16.2987 55.0867 15.991 55.143 15.653 55.143C15.3844 55.143 15.12 55.0997 14.86 55.013C14.6087 54.935 14.3834 54.818 14.184 54.662C13.9934 54.4973 13.8374 54.2937 13.716 54.051C13.5947 53.8083 13.534 53.5267 13.534 53.206C13.534 52.764 13.651 52.4 13.885 52.114C14.1277 51.828 14.431 51.6027 14.795 51.438C15.159 51.2647 15.562 51.1433 16.004 51.074C16.446 51.0047 16.875 50.97 17.291 50.97V50.892C17.291 50.372 17.1784 49.9993 16.953 49.774C16.7364 49.5487 16.42 49.436 16.004 49.436C15.718 49.436 15.4537 49.501 15.211 49.631C14.977 49.7523 14.7777 49.917 14.613 50.125L13.911 49.631C14.1624 49.293 14.457 49.046 14.795 48.89C15.1417 48.7253 15.575 48.643 16.095 48.643C16.7884 48.643 17.3257 48.8207 17.707 49.176C18.097 49.5313 18.292 50.125 18.292 50.957V55H17.382ZM17.291 51.763C17.005 51.7717 16.7017 51.7933 16.381 51.828C16.0604 51.8627 15.7614 51.932 15.484 52.036C15.2154 52.1313 14.99 52.2743 14.808 52.465C14.6347 52.6557 14.548 52.907 14.548 53.219C14.548 53.4183 14.587 53.5873 14.665 53.726C14.743 53.8647 14.8384 53.9817 14.951 54.077C15.0724 54.1637 15.2024 54.2287 15.341 54.272C15.4884 54.3067 15.6314 54.324 15.77 54.324C16.0734 54.324 16.3507 54.2633 16.602 54.142C16.862 54.012 17.0917 53.8603 17.291 53.687V51.763ZM25.1005 46.251V55H24.1775L24.0995 54.493C23.8742 54.727 23.6272 54.896 23.3585 55C23.0985 55.0953 22.8125 55.143 22.5005 55.143C22.0585 55.143 21.6642 55.0607 21.3175 54.896C20.9795 54.7227 20.6935 54.4887 20.4595 54.194C20.2255 53.8993 20.0478 53.5527 19.9265 53.154C19.8052 52.7467 19.7445 52.309 19.7445 51.841C19.7445 51.4423 19.8052 51.0523 19.9265 50.671C20.0565 50.281 20.2428 49.9387 20.4855 49.644C20.7368 49.3407 21.0488 49.098 21.4215 48.916C21.7942 48.734 22.2275 48.643 22.7215 48.643C23.0335 48.643 23.3022 48.669 23.5275 48.721C23.7528 48.7643 23.9435 48.8163 24.0995 48.877V46.381L25.1005 46.251ZM24.0995 49.748C24.0475 49.7133 23.9738 49.6787 23.8785 49.644C23.7918 49.6093 23.6922 49.579 23.5795 49.553C23.4668 49.5183 23.3498 49.4923 23.2285 49.475C23.1072 49.4577 22.9902 49.449 22.8775 49.449C22.5135 49.449 22.1972 49.5183 21.9285 49.657C21.6598 49.7957 21.4345 49.982 21.2525 50.216C21.0792 50.4413 20.9492 50.7013 20.8625 50.996C20.7758 51.2907 20.7325 51.5897 20.7325 51.893C20.7325 52.2397 20.7715 52.5647 20.8495 52.868C20.9275 53.1627 21.0445 53.4183 21.2005 53.635C21.3652 53.8517 21.5645 54.025 21.7985 54.155C22.0412 54.2763 22.3272 54.337 22.6565 54.337C22.9165 54.337 23.1722 54.285 23.4235 54.181C23.6748 54.0683 23.9002 53.8863 24.0995 53.635V49.748ZM27.5499 51.841C27.5499 52.621 27.7275 53.232 28.0829 53.674C28.4382 54.116 28.9539 54.337 29.6299 54.337C30.0199 54.337 30.3492 54.2417 30.6179 54.051C30.8865 53.8603 31.1032 53.6263 31.2679 53.349L31.9309 53.791C31.7055 54.181 31.4109 54.506 31.0469 54.766C30.6915 55.0173 30.2105 55.143 29.6039 55.143C29.1359 55.143 28.7155 55.0737 28.3429 54.935C27.9702 54.7877 27.6495 54.5797 27.3809 54.311C27.1209 54.0337 26.9172 53.6913 26.7699 53.284C26.6312 52.8767 26.5619 52.4043 26.5619 51.867C26.5619 51.373 26.6269 50.931 26.7569 50.541C26.8955 50.1423 27.0819 49.8043 27.3159 49.527C27.5585 49.241 27.8489 49.0243 28.1869 48.877C28.5335 48.721 28.9149 48.643 29.3309 48.643C29.7902 48.643 30.1889 48.721 30.5269 48.877C30.8735 49.033 31.1595 49.254 31.3849 49.54C31.6102 49.8173 31.7792 50.1553 31.8919 50.554C32.0045 50.944 32.0609 51.373 32.0609 51.841H27.5499ZM30.9299 51.048C30.9212 50.7793 30.8692 50.5453 30.7739 50.346C30.6785 50.138 30.5572 49.969 30.4099 49.839C30.2625 49.7003 30.0935 49.6007 29.9029 49.54C29.7122 49.4707 29.5215 49.436 29.3309 49.436C28.9149 49.436 28.5552 49.5617 28.2519 49.813C27.9572 50.0557 27.7535 50.4673 27.6409 51.048H30.9299ZM33.5386 55V48.864L34.4486 48.734L34.5266 49.345C34.6913 49.1717 34.9036 49.0113 35.1636 48.864C35.4236 48.7167 35.6879 48.643 35.9566 48.643C36.1473 48.643 36.3206 48.656 36.4766 48.682C36.6413 48.708 36.7669 48.734 36.8536 48.76L36.6716 49.683C36.4549 49.5877 36.1819 49.54 35.8526 49.54C35.6013 49.54 35.3586 49.6093 35.1246 49.748C34.8993 49.8867 34.7043 50.0297 34.5396 50.177V55H33.5386ZM38.7291 48.994C38.9977 48.8727 39.2534 48.786 39.4961 48.734C39.7474 48.682 39.9944 48.656 40.2371 48.656C40.6357 48.656 41.0084 48.7297 41.3551 48.877C41.7017 49.0157 41.9964 49.2237 42.2391 49.501C42.4904 49.7697 42.6854 50.1077 42.8241 50.515C42.9714 50.9137 43.0451 51.3773 43.0451 51.906C43.0451 52.4 42.9671 52.8463 42.8111 53.245C42.6551 53.6437 42.4384 53.986 42.1611 54.272C41.8837 54.5493 41.5544 54.766 41.1731 54.922C40.8004 55.0693 40.3931 55.143 39.9511 55.143C39.4744 55.143 39.0454 55.0953 38.6641 55C38.2914 54.896 37.9794 54.7877 37.7281 54.675V46.381L38.7291 46.251V48.994ZM38.7291 54.116C38.8937 54.1853 39.0714 54.2417 39.2621 54.285C39.4527 54.3283 39.6347 54.35 39.8081 54.35C40.1547 54.35 40.4667 54.2937 40.7441 54.181C41.0301 54.0597 41.2684 53.8907 41.4591 53.674C41.6584 53.4573 41.8101 53.1973 41.9141 52.894C42.0181 52.5907 42.0701 52.2527 42.0701 51.88C42.0701 51.5073 42.0181 51.1737 41.9141 50.879C41.8101 50.5757 41.6671 50.32 41.4851 50.112C41.3031 49.904 41.0907 49.748 40.8481 49.644C40.6054 49.5313 40.3411 49.475 40.0551 49.475C39.8471 49.475 39.6304 49.5053 39.4051 49.566C39.1797 49.618 38.9544 49.7177 38.7291 49.865V54.116ZM45.8714 54.87C45.5161 54.6793 45.2171 54.4323 44.9744 54.129C44.7318 53.817 44.5498 53.466 44.4284 53.076C44.3071 52.6773 44.2464 52.2743 44.2464 51.867C44.2464 51.4597 44.3028 51.0653 44.4154 50.684C44.5368 50.294 44.7188 49.9473 44.9614 49.644C45.2041 49.3407 45.5031 49.098 45.8584 48.916C46.2224 48.734 46.6471 48.643 47.1324 48.643C47.6091 48.643 48.0294 48.7383 48.3934 48.929C48.7574 49.111 49.0564 49.3537 49.2904 49.657C49.5331 49.9603 49.7151 50.307 49.8364 50.697C49.9578 51.087 50.0184 51.4857 50.0184 51.893C50.0184 52.3003 49.9578 52.699 49.8364 53.089C49.7151 53.479 49.5331 53.8257 49.2904 54.129C49.0564 54.4323 48.7574 54.6793 48.3934 54.87C48.0294 55.052 47.6091 55.143 47.1324 55.143C46.6558 55.143 46.2354 55.052 45.8714 54.87ZM45.7024 53.57C45.8671 53.7953 46.0664 53.9817 46.3004 54.129C46.5431 54.2677 46.8204 54.337 47.1324 54.337C47.4531 54.337 47.7304 54.2677 47.9644 54.129C48.2071 53.9817 48.4064 53.7953 48.5624 53.57C48.7271 53.336 48.8484 53.0717 48.9264 52.777C49.0044 52.4823 49.0434 52.1833 49.0434 51.88C49.0434 51.5767 49.0044 51.2777 48.9264 50.983C48.8484 50.6883 48.7271 50.4283 48.5624 50.203C48.4064 49.969 48.2071 49.7827 47.9644 49.644C47.7304 49.5053 47.4531 49.436 47.1324 49.436C46.8118 49.436 46.5301 49.5053 46.2874 49.644C46.0534 49.7827 45.8584 49.969 45.7024 50.203C45.5464 50.4283 45.4294 50.6883 45.3514 50.983C45.2734 51.269 45.2344 51.5637 45.2344 51.867C45.2344 52.179 45.2734 52.4823 45.3514 52.777C45.4294 53.0717 45.5464 53.336 45.7024 53.57ZM54.9602 55L54.9082 54.467C54.6915 54.6837 54.4402 54.8527 54.1542 54.974C53.8768 55.0867 53.5692 55.143 53.2312 55.143C52.9625 55.143 52.6982 55.0997 52.4382 55.013C52.1868 54.935 51.9615 54.818 51.7622 54.662C51.5715 54.4973 51.4155 54.2937 51.2942 54.051C51.1728 53.8083 51.1122 53.5267 51.1122 53.206C51.1122 52.764 51.2292 52.4 51.4632 52.114C51.7058 51.828 52.0092 51.6027 52.3732 51.438C52.7372 51.2647 53.1402 51.1433 53.5822 51.074C54.0242 51.0047 54.4532 50.97 54.8692 50.97V50.892C54.8692 50.372 54.7565 49.9993 54.5312 49.774C54.3145 49.5487 53.9982 49.436 53.5822 49.436C53.2962 49.436 53.0318 49.501 52.7892 49.631C52.5552 49.7523 52.3558 49.917 52.1912 50.125L51.4892 49.631C51.7405 49.293 52.0352 49.046 52.3732 48.89C52.7198 48.7253 53.1532 48.643 53.6732 48.643C54.3665 48.643 54.9038 48.8207 55.2852 49.176C55.6752 49.5313 55.8702 50.125 55.8702 50.957V55H54.9602ZM54.8692 51.763C54.5832 51.7717 54.2798 51.7933 53.9592 51.828C53.6385 51.8627 53.3395 51.932 53.0622 52.036C52.7935 52.1313 52.5682 52.2743 52.3862 52.465C52.2128 52.6557 52.1262 52.907 52.1262 53.219C52.1262 53.4183 52.1652 53.5873 52.2432 53.726C52.3212 53.8647 52.4165 53.9817 52.5292 54.077C52.6505 54.1637 52.7805 54.2287 52.9192 54.272C53.0665 54.3067 53.2095 54.324 53.3482 54.324C53.6515 54.324 53.9288 54.2633 54.1802 54.142C54.4402 54.012 54.6698 53.8603 54.8692 53.687V51.763ZM57.6216 55V48.864L58.5316 48.734L58.6096 49.345C58.7743 49.1717 58.9866 49.0113 59.2466 48.864C59.5066 48.7167 59.7709 48.643 60.0396 48.643C60.2303 48.643 60.4036 48.656 60.5596 48.682C60.7243 48.708 60.8499 48.734 60.9366 48.76L60.7546 49.683C60.5379 49.5877 60.2649 49.54 59.9356 49.54C59.6843 49.54 59.4416 49.6093 59.2076 49.748C58.9823 49.8867 58.7873 50.0297 58.6226 50.177V55H57.6216ZM66.7411 46.251V55H65.8181L65.7401 54.493C65.5148 54.727 65.2678 54.896 64.9991 55C64.7391 55.0953 64.4531 55.143 64.1411 55.143C63.6991 55.143 63.3048 55.0607 62.9581 54.896C62.6201 54.7227 62.3341 54.4887 62.1001 54.194C61.8661 53.8993 61.6884 53.5527 61.5671 53.154C61.4458 52.7467 61.3851 52.309 61.3851 51.841C61.3851 51.4423 61.4458 51.0523 61.5671 50.671C61.6971 50.281 61.8834 49.9387 62.1261 49.644C62.3774 49.3407 62.6894 49.098 63.0621 48.916C63.4348 48.734 63.8681 48.643 64.3621 48.643C64.6741 48.643 64.9428 48.669 65.1681 48.721C65.3934 48.7643 65.5841 48.8163 65.7401 48.877V46.381L66.7411 46.251ZM65.7401 49.748C65.6881 49.7133 65.6144 49.6787 65.5191 49.644C65.4324 49.6093 65.3328 49.579 65.2201 49.553C65.1074 49.5183 64.9904 49.4923 64.8691 49.475C64.7478 49.4577 64.6308 49.449 64.5181 49.449C64.1541 49.449 63.8378 49.5183 63.5691 49.657C63.3004 49.7957 63.0751 49.982 62.8931 50.216C62.7198 50.4413 62.5898 50.7013 62.5031 50.996C62.4164 51.2907 62.3731 51.5897 62.3731 51.893C62.3731 52.2397 62.4121 52.5647 62.4901 52.868C62.5681 53.1627 62.6851 53.4183 62.8411 53.635C63.0058 53.8517 63.2051 54.025 63.4391 54.155C63.6818 54.2763 63.9678 54.337 64.2971 54.337C64.5571 54.337 64.8128 54.285 65.0641 54.181C65.3154 54.0683 65.5408 53.8863 65.7401 53.635V49.748Z" fill="#004719"/>
<path d="M37.1683 25.872C39.8083 23.848 43.6803 20.856 43.6803 9.68005V8.80005H24.3203V9.68005C24.3203 20.856 28.2803 23.848 30.8323 25.872C32.3283 27.016 33.1203 27.632 33.1203 29.0401V31.6801C31.7123 31.8561 30.3043 32.3841 29.7763 33.4401H27.8403C26.8723 33.4401 26.0803 34.2321 26.0803 35.2001H41.9203C41.9203 34.2321 41.1283 33.4401 40.1603 33.4401H38.2243C37.6963 32.3841 36.3763 31.8561 34.8803 31.6801V29.0401C34.8803 27.632 35.5843 27.016 37.1683 25.872ZM34.0003 26.312C33.4723 25.608 32.6803 24.992 31.9763 24.464C29.6003 22.616 26.3443 20.152 26.1683 10.56H42.0083C41.8323 20.064 38.5763 22.616 36.2003 24.464C35.3203 25.08 34.5283 25.608 34.0003 26.312Z" fill="#004719"/>
<path d="M28.544 23.7601C28.456 23.7601 19.04 21.7361 19.04 11.4401V10.5601H25.2V12.3201H20.8C21.328 20.4161 28.808 22.0001 28.896 22.0001L28.544 23.7601Z" fill="#004719"/>
<path d="M39.4565 23.7601L39.1045 22.0001C39.4565 21.9121 46.6725 20.3281 47.2005 12.3201H42.8005V10.5601H48.9605V11.4401C48.9605 21.7361 39.5445 23.7601 39.4565 23.7601Z" fill="#004719"/>
</svg>
