<svg width="35" height="54" viewBox="0 0 35 54" fill="none" xmlns="http://www.w3.org/2000/svg">
<path d="M1.053 51V42.329H3.757C4.75367 42.329 5.49033 42.55 5.967 42.992C6.45233 43.434 6.695 44.0883 6.695 44.955C6.695 45.7957 6.43933 46.4327 5.928 46.866C5.42533 47.2993 4.68867 47.516 3.718 47.516H2.093V51H1.053ZM2.093 46.606H3.796C4.32467 46.606 4.75367 46.476 5.083 46.216C5.41233 45.956 5.577 45.527 5.577 44.929C5.577 44.331 5.421 43.8977 5.109 43.629C4.797 43.3603 4.355 43.226 3.783 43.226H2.093V46.606ZM7.96829 51V44.864L8.87829 44.734L8.95629 45.345C9.12096 45.1717 9.33329 45.0113 9.59329 44.864C9.85329 44.7167 10.1176 44.643 10.3863 44.643C10.577 44.643 10.7503 44.656 10.9063 44.682C11.071 44.708 11.1966 44.734 11.2833 44.76L11.1013 45.683C10.8846 45.5877 10.6116 45.54 10.2823 45.54C10.031 45.54 9.78829 45.6093 9.55429 45.748C9.32896 45.8867 9.13396 46.0297 8.96929 46.177V51H7.96829ZM13.3568 50.87C13.0015 50.6793 12.7025 50.4323 12.4598 50.129C12.2171 49.817 12.0351 49.466 11.9138 49.076C11.7925 48.6773 11.7318 48.2743 11.7318 47.867C11.7318 47.4597 11.7881 47.0653 11.9008 46.684C12.0221 46.294 12.2041 45.9473 12.4468 45.644C12.6895 45.3407 12.9885 45.098 13.3438 44.916C13.7078 44.734 14.1325 44.643 14.6178 44.643C15.0945 44.643 15.5148 44.7383 15.8788 44.929C16.2428 45.111 16.5418 45.3537 16.7758 45.657C17.0185 45.9603 17.2005 46.307 17.3218 46.697C17.4431 47.087 17.5038 47.4857 17.5038 47.893C17.5038 48.3003 17.4431 48.699 17.3218 49.089C17.2005 49.479 17.0185 49.8257 16.7758 50.129C16.5418 50.4323 16.2428 50.6793 15.8788 50.87C15.5148 51.052 15.0945 51.143 14.6178 51.143C14.1411 51.143 13.7208 51.052 13.3568 50.87ZM13.1878 49.57C13.3525 49.7953 13.5518 49.9817 13.7858 50.129C14.0285 50.2677 14.3058 50.337 14.6178 50.337C14.9385 50.337 15.2158 50.2677 15.4498 50.129C15.6925 49.9817 15.8918 49.7953 16.0478 49.57C16.2125 49.336 16.3338 49.0717 16.4118 48.777C16.4898 48.4823 16.5288 48.1833 16.5288 47.88C16.5288 47.5767 16.4898 47.2777 16.4118 46.983C16.3338 46.6883 16.2125 46.4283 16.0478 46.203C15.8918 45.969 15.6925 45.7827 15.4498 45.644C15.2158 45.5053 14.9385 45.436 14.6178 45.436C14.2971 45.436 14.0155 45.5053 13.7728 45.644C13.5388 45.7827 13.3438 45.969 13.1878 46.203C13.0318 46.4283 12.9148 46.6883 12.8368 46.983C12.7588 47.269 12.7198 47.5637 12.7198 47.867C12.7198 48.179 12.7588 48.4823 12.8368 48.777C12.9148 49.0717 13.0318 49.336 13.1878 49.57ZM19.2735 51V45.618L18.3635 45.449V44.799H19.2865V44.344C19.2865 43.9713 19.3428 43.6463 19.4555 43.369C19.5768 43.0917 19.7328 42.8663 19.9235 42.693C20.1228 42.511 20.3525 42.3767 20.6125 42.29C20.8725 42.2033 21.1455 42.16 21.4315 42.16C21.9082 42.16 22.2852 42.2293 22.5625 42.368C22.8485 42.498 23.0868 42.6453 23.2775 42.81L22.7965 43.473C22.6492 43.3517 22.4628 43.2347 22.2375 43.122C22.0122 43.0093 21.7478 42.953 21.4445 42.953C21.0805 42.953 20.7945 43.057 20.5865 43.265C20.3785 43.473 20.2745 43.837 20.2745 44.357V44.799H21.8085L21.7045 45.618H20.2875V51H19.2735ZM23.5765 51H22.5625V44.864L23.5765 44.734V51ZM27.4796 50.87C27.3582 50.9393 27.2196 50.9913 27.0636 51.026C26.9076 51.0607 26.7602 51.078 26.6216 51.078C26.1536 51.078 25.8286 50.9567 25.6466 50.714C25.4646 50.4713 25.3736 50.129 25.3736 49.687V42.381L26.3746 42.251V49.7C26.3746 49.908 26.4049 50.0553 26.4656 50.142C26.5262 50.2287 26.6302 50.272 26.7776 50.272C26.9076 50.272 27.0592 50.2287 27.2326 50.142L27.4796 50.87ZM29.1348 47.841C29.1348 48.621 29.3125 49.232 29.6678 49.674C30.0232 50.116 30.5388 50.337 31.2148 50.337C31.6048 50.337 31.9342 50.2417 32.2028 50.051C32.4715 49.8603 32.6882 49.6263 32.8528 49.349L33.5158 49.791C33.2905 50.181 32.9958 50.506 32.6318 50.766C32.2765 51.0173 31.7955 51.143 31.1888 51.143C30.7208 51.143 30.3005 51.0737 29.9278 50.935C29.5552 50.7877 29.2345 50.5797 28.9658 50.311C28.7058 50.0337 28.5022 49.6913 28.3548 49.284C28.2162 48.8767 28.1468 48.4043 28.1468 47.867C28.1468 47.373 28.2118 46.931 28.3418 46.541C28.4805 46.1423 28.6668 45.8043 28.9008 45.527C29.1435 45.241 29.4338 45.0243 29.7718 44.877C30.1185 44.721 30.4998 44.643 30.9158 44.643C31.3752 44.643 31.7738 44.721 32.1118 44.877C32.4585 45.033 32.7445 45.254 32.9698 45.54C33.1952 45.8173 33.3642 46.1553 33.4768 46.554C33.5895 46.944 33.6458 47.373 33.6458 47.841H29.1348ZM32.5148 47.048C32.5062 46.7793 32.4542 46.5453 32.3588 46.346C32.2635 46.138 32.1422 45.969 31.9948 45.839C31.8475 45.7003 31.6785 45.6007 31.4878 45.54C31.2972 45.4707 31.1065 45.436 30.9158 45.436C30.4998 45.436 30.1402 45.5617 29.8368 45.813C29.5422 46.0557 29.3385 46.4673 29.2258 47.048H32.5148Z" fill="#004719"/>
<path d="M18 18C26.284 18 33 21.134 33 25V30H3V25C3 21.134 9.716 18 18 18ZM31 25C31 22.24 25.18 20 18 20C10.82 20 5 22.24 5 25V28H31V25ZM18 0C19.8565 0 21.637 0.737498 22.9497 2.05025C24.2625 3.36301 25 5.14348 25 7C25 8.85652 24.2625 10.637 22.9497 11.9497C21.637 13.2625 19.8565 14 18 14C16.1435 14 14.363 13.2625 13.0503 11.9497C11.7375 10.637 11 8.85652 11 7C11 5.14348 11.7375 3.36301 13.0503 2.05025C14.363 0.737498 16.1435 0 18 0ZM18 2C16.6739 2 15.4021 2.52678 14.4645 3.46447C13.5268 4.40215 13 5.67392 13 7C13 8.32608 13.5268 9.59785 14.4645 10.5355C15.4021 11.4732 16.6739 12 18 12C19.3261 12 20.5979 11.4732 21.5355 10.5355C22.4732 9.59785 23 8.32608 23 7C23 5.67392 22.4732 4.40215 21.5355 3.46447C20.5979 2.52678 19.3261 2 18 2Z" fill="#004719"/>
</svg>
