<svg width="48" height="49" viewBox="0 0 48 49" fill="none" xmlns="http://www.w3.org/2000/svg">
<path d="M1.25929 44.141C1.51063 44.505 1.83996 44.778 2.24729 44.96C2.65463 45.142 3.07063 45.233 3.49529 45.233C3.72063 45.233 3.93296 45.207 4.13229 45.155C4.34029 45.0943 4.51796 45.0077 4.66529 44.895C4.82129 44.7737 4.94263 44.6177 5.02929 44.427C5.12463 44.2363 5.17229 44.011 5.17229 43.751C5.17229 43.5083 5.11596 43.296 5.00329 43.114C4.89063 42.9233 4.73896 42.7543 4.54829 42.607C4.35763 42.4597 4.14096 42.3297 3.89829 42.217C3.65563 42.0957 3.40429 41.9787 3.14429 41.866C2.84963 41.736 2.55929 41.606 2.27329 41.476C1.98729 41.3373 1.72729 41.1727 1.49329 40.982C1.26796 40.7913 1.08163 40.5703 0.934293 40.319C0.795626 40.0677 0.726293 39.76 0.726293 39.396C0.726293 39.0233 0.79996 38.6983 0.947293 38.421C1.10329 38.135 1.30696 37.901 1.55829 37.719C1.81829 37.5283 2.10863 37.3897 2.42929 37.303C2.75863 37.2077 3.10096 37.16 3.45629 37.16C4.00229 37.16 4.52663 37.2683 5.02929 37.485C5.53196 37.7017 5.93929 38.044 6.25129 38.512L5.45829 39.136C5.23296 38.824 4.94263 38.5727 4.58729 38.382C4.24063 38.1827 3.85929 38.083 3.44329 38.083C2.93196 38.083 2.53329 38.2 2.24729 38.434C1.96996 38.6593 1.83129 38.9627 1.83129 39.344C1.83129 39.5607 1.87896 39.747 1.97429 39.903C2.07829 40.0503 2.21696 40.189 2.39029 40.319C2.57229 40.4403 2.78896 40.5573 3.04029 40.67C3.29163 40.7827 3.57329 40.9083 3.88529 41.047C4.17996 41.177 4.47029 41.3157 4.75629 41.463C5.04229 41.6103 5.29796 41.7837 5.52329 41.983C5.74863 42.1823 5.93063 42.4163 6.06929 42.685C6.20796 42.9537 6.27729 43.2743 6.27729 43.647C6.27729 44.089 6.19929 44.4703 6.04329 44.791C5.89596 45.1117 5.69229 45.376 5.43229 45.584C5.17229 45.792 4.86896 45.9437 4.52229 46.039C4.18429 46.1343 3.82029 46.182 3.43029 46.182C3.13563 46.182 2.84096 46.1473 2.54629 46.078C2.26029 46.0173 1.98296 45.9263 1.71429 45.805C1.45429 45.6837 1.21163 45.5363 0.986293 45.363C0.769626 45.181 0.587626 44.9773 0.440293 44.752L1.25929 44.141ZM7.87599 40.618L6.80999 40.449V39.799H7.87599V38.174L8.87699 38.044V39.799H10.541L10.437 40.618H8.86399V44.583C8.86399 44.8863 8.92032 45.09 9.03299 45.194C9.15432 45.2893 9.30599 45.337 9.48799 45.337C9.65266 45.337 9.80866 45.3023 9.95599 45.233C10.1033 45.1637 10.2377 45.0813 10.359 44.986L10.749 45.662C10.5497 45.8093 10.3503 45.9263 10.151 46.013C9.96032 46.0997 9.68732 46.143 9.33199 46.143C8.86399 46.143 8.50432 46.026 8.25299 45.792C8.00166 45.5493 7.87599 45.181 7.87599 44.687V40.618ZM15.1706 46L15.1186 45.467C14.9019 45.6837 14.6506 45.8527 14.3646 45.974C14.0873 46.0867 13.7796 46.143 13.4416 46.143C13.1729 46.143 12.9086 46.0997 12.6486 46.013C12.3973 45.935 12.1719 45.818 11.9726 45.662C11.7819 45.4973 11.6259 45.2937 11.5046 45.051C11.3833 44.8083 11.3226 44.5267 11.3226 44.206C11.3226 43.764 11.4396 43.4 11.6736 43.114C11.9163 42.828 12.2196 42.6027 12.5836 42.438C12.9476 42.2647 13.3506 42.1433 13.7926 42.074C14.2346 42.0047 14.6636 41.97 15.0796 41.97V41.892C15.0796 41.372 14.9669 40.9993 14.7416 40.774C14.5249 40.5487 14.2086 40.436 13.7926 40.436C13.5066 40.436 13.2423 40.501 12.9996 40.631C12.7656 40.7523 12.5663 40.917 12.4016 41.125L11.6996 40.631C11.9509 40.293 12.2456 40.046 12.5836 39.89C12.9303 39.7253 13.3636 39.643 13.8836 39.643C14.5769 39.643 15.1143 39.8207 15.4956 40.176C15.8856 40.5313 16.0806 41.125 16.0806 41.957V46H15.1706ZM15.0796 42.763C14.7936 42.7717 14.4903 42.7933 14.1696 42.828C13.8489 42.8627 13.5499 42.932 13.2726 43.036C13.0039 43.1313 12.7786 43.2743 12.5966 43.465C12.4233 43.6557 12.3366 43.907 12.3366 44.219C12.3366 44.4183 12.3756 44.5873 12.4536 44.726C12.5316 44.8647 12.6269 44.9817 12.7396 45.077C12.8609 45.1637 12.9909 45.2287 13.1296 45.272C13.2769 45.3067 13.4199 45.324 13.5586 45.324C13.8619 45.324 14.1393 45.2633 14.3906 45.142C14.6506 45.012 14.8803 44.8603 15.0796 44.687V42.763ZM18.2481 40.618L17.1821 40.449V39.799H18.2481V38.174L19.2491 38.044V39.799H20.9131L20.8091 40.618H19.2361V44.583C19.2361 44.8863 19.2924 45.09 19.4051 45.194C19.5264 45.2893 19.6781 45.337 19.8601 45.337C20.0247 45.337 20.1807 45.3023 20.3281 45.233C20.4754 45.1637 20.6097 45.0813 20.7311 44.986L21.1211 45.662C20.9217 45.8093 20.7224 45.9263 20.5231 46.013C20.3324 46.0997 20.0594 46.143 19.7041 46.143C19.2361 46.143 18.8764 46.026 18.6251 45.792C18.3737 45.5493 18.2481 45.181 18.2481 44.687V40.618ZM23.1117 46H22.0977V39.864L23.1117 39.734V46ZM23.3457 38.07C23.3457 38.2867 23.272 38.4643 23.1247 38.603C22.986 38.7417 22.8127 38.811 22.6047 38.811C22.3967 38.811 22.219 38.7417 22.0717 38.603C21.933 38.4643 21.8637 38.2867 21.8637 38.07C21.8637 37.8707 21.933 37.6973 22.0717 37.55C22.219 37.4027 22.3967 37.329 22.6047 37.329C22.8127 37.329 22.986 37.4027 23.1247 37.55C23.272 37.6973 23.3457 37.8707 23.3457 38.07ZM25.2413 44.466C25.3887 44.7433 25.575 44.96 25.8003 45.116C26.0343 45.2633 26.3463 45.337 26.7363 45.337C27.5857 45.337 28.0103 45.0337 28.0103 44.427C28.0103 44.245 27.98 44.0933 27.9193 43.972C27.8673 43.842 27.7763 43.7293 27.6463 43.634C27.525 43.53 27.3647 43.4347 27.1653 43.348C26.966 43.2527 26.7233 43.153 26.4373 43.049C26.1253 42.945 25.861 42.8367 25.6443 42.724C25.4277 42.6027 25.25 42.4727 25.1113 42.334C24.9727 42.1953 24.8687 42.0393 24.7993 41.866C24.7387 41.6927 24.7083 41.489 24.7083 41.255C24.7083 40.7523 24.8903 40.358 25.2543 40.072C25.627 39.786 26.1167 39.643 26.7233 39.643C27.226 39.643 27.6463 39.7297 27.9843 39.903C28.3223 40.0677 28.6083 40.306 28.8423 40.618L28.1403 41.177C27.967 40.969 27.7633 40.7957 27.5293 40.657C27.2953 40.5183 27.031 40.449 26.7363 40.449C26.3723 40.449 26.0993 40.5227 25.9173 40.67C25.744 40.8087 25.6573 40.982 25.6573 41.19C25.6573 41.32 25.679 41.437 25.7223 41.541C25.7743 41.6363 25.861 41.7273 25.9823 41.814C26.1037 41.892 26.2597 41.9743 26.4503 42.061C26.6497 42.139 26.901 42.23 27.2043 42.334C27.7763 42.5333 28.2097 42.7847 28.5043 43.088C28.799 43.3913 28.9463 43.7943 28.9463 44.297C28.9463 44.5917 28.89 44.856 28.7773 45.09C28.6647 45.3153 28.5087 45.506 28.3093 45.662C28.1187 45.818 27.889 45.935 27.6203 46.013C27.3517 46.0997 27.057 46.143 26.7363 46.143C26.121 46.143 25.64 46.0303 25.2933 45.805C24.9467 45.5797 24.6693 45.2937 24.4613 44.947L25.2413 44.466ZM30.6768 40.618L29.6108 40.449V39.799H30.6768V38.174L31.6778 38.044V39.799H33.3418L33.2378 40.618H31.6648V44.583C31.6648 44.8863 31.7211 45.09 31.8338 45.194C31.9551 45.2893 32.1068 45.337 32.2888 45.337C32.4534 45.337 32.6094 45.3023 32.7568 45.233C32.9041 45.1637 33.0384 45.0813 33.1598 44.986L33.5498 45.662C33.3504 45.8093 33.1511 45.9263 32.9518 46.013C32.7611 46.0997 32.4881 46.143 32.1328 46.143C31.6648 46.143 31.3051 46.026 31.0538 45.792C30.8024 45.5493 30.6768 45.181 30.6768 44.687V40.618ZM35.5404 46H34.5264V39.864L35.5404 39.734V46ZM35.7744 38.07C35.7744 38.2867 35.7007 38.4643 35.5534 38.603C35.4147 38.7417 35.2414 38.811 35.0334 38.811C34.8254 38.811 34.6477 38.7417 34.5004 38.603C34.3617 38.4643 34.2924 38.2867 34.2924 38.07C34.2924 37.8707 34.3617 37.6973 34.5004 37.55C34.6477 37.4027 34.8254 37.329 35.0334 37.329C35.2414 37.329 35.4147 37.4027 35.5534 37.55C35.7007 37.6973 35.7744 37.8707 35.7744 38.07ZM42.2591 44.674C42.0164 45.1767 41.6827 45.5493 41.2581 45.792C40.8421 46.026 40.4001 46.143 39.9321 46.143C39.5681 46.143 39.2084 46.078 38.8531 45.948C38.5064 45.818 38.1987 45.6187 37.9301 45.35C37.6614 45.0813 37.4447 44.7477 37.2801 44.349C37.1154 43.9417 37.0331 43.465 37.0331 42.919C37.0331 42.3383 37.1154 41.84 37.2801 41.424C37.4447 41.008 37.6614 40.67 37.9301 40.41C38.1987 40.1413 38.5021 39.9463 38.8401 39.825C39.1781 39.7037 39.5161 39.643 39.8541 39.643C40.2007 39.643 40.5041 39.695 40.7641 39.799C41.0327 39.903 41.2581 40.033 41.4401 40.189C41.6307 40.345 41.7824 40.5097 41.8951 40.683C42.0164 40.8563 42.1031 41.0123 42.1551 41.151L41.4141 41.619C41.2321 41.203 41.0024 40.904 40.7251 40.722C40.4477 40.54 40.1574 40.449 39.8541 40.449C39.6201 40.449 39.3947 40.5053 39.1781 40.618C38.9614 40.722 38.7664 40.878 38.5931 41.086C38.4197 41.294 38.2811 41.5497 38.1771 41.853C38.0731 42.1563 38.0211 42.503 38.0211 42.893C38.0211 43.283 38.0731 43.6297 38.1771 43.933C38.2811 44.2363 38.4197 44.492 38.5931 44.7C38.7751 44.908 38.9831 45.0683 39.2171 45.181C39.4597 45.285 39.7154 45.337 39.9841 45.337C40.2874 45.337 40.5777 45.2503 40.8551 45.077C41.1411 44.9037 41.3751 44.622 41.5571 44.232L42.2591 44.674ZM43.8273 44.466C43.9746 44.7433 44.161 44.96 44.3863 45.116C44.6203 45.2633 44.9323 45.337 45.3223 45.337C46.1716 45.337 46.5963 45.0337 46.5963 44.427C46.5963 44.245 46.566 44.0933 46.5053 43.972C46.4533 43.842 46.3623 43.7293 46.2323 43.634C46.111 43.53 45.9506 43.4347 45.7513 43.348C45.552 43.2527 45.3093 43.153 45.0233 43.049C44.7113 42.945 44.447 42.8367 44.2303 42.724C44.0136 42.6027 43.836 42.4727 43.6973 42.334C43.5586 42.1953 43.4546 42.0393 43.3853 41.866C43.3246 41.6927 43.2943 41.489 43.2943 41.255C43.2943 40.7523 43.4763 40.358 43.8403 40.072C44.213 39.786 44.7026 39.643 45.3093 39.643C45.812 39.643 46.2323 39.7297 46.5703 39.903C46.9083 40.0677 47.1943 40.306 47.4283 40.618L46.7263 41.177C46.553 40.969 46.3493 40.7957 46.1153 40.657C45.8813 40.5183 45.617 40.449 45.3223 40.449C44.9583 40.449 44.6853 40.5227 44.5033 40.67C44.33 40.8087 44.2433 40.982 44.2433 41.19C44.2433 41.32 44.265 41.437 44.3083 41.541C44.3603 41.6363 44.447 41.7273 44.5683 41.814C44.6896 41.892 44.8456 41.9743 45.0363 42.061C45.2356 42.139 45.487 42.23 45.7903 42.334C46.3623 42.5333 46.7956 42.7847 47.0903 43.088C47.385 43.3913 47.5323 43.7943 47.5323 44.297C47.5323 44.5917 47.476 44.856 47.3633 45.09C47.2506 45.3153 47.0946 45.506 46.8953 45.662C46.7046 45.818 46.475 45.935 46.2063 46.013C45.9376 46.0997 45.643 46.143 45.3223 46.143C44.707 46.143 44.226 46.0303 43.8793 45.805C43.5326 45.5797 43.2553 45.2937 43.0473 44.947L43.8273 44.466Z" fill="#004719"/>
<path d="M9 0H10.5417V21.5833L19.1457 6.68004L28.4111 12.0296L33.9842 2.37417L35.3193 3.145L28.9738 14.1355L19.71 8.78596L10.5417 24.6667H35.2083V26.2083H9V0Z" fill="#004719"/>
</svg>
