<svg width="37" height="57" viewBox="0 0 37 57" fill="none" xmlns="http://www.w3.org/2000/svg">
<path d="M1.209 52.141C1.46033 52.505 1.78967 52.778 2.197 52.96C2.60433 53.142 3.02033 53.233 3.445 53.233C3.67033 53.233 3.88267 53.207 4.082 53.155C4.29 53.0943 4.46767 53.0077 4.615 52.895C4.771 52.7737 4.89233 52.6177 4.979 52.427C5.07433 52.2363 5.122 52.011 5.122 51.751C5.122 51.5083 5.06567 51.296 4.953 51.114C4.84033 50.9233 4.68867 50.7543 4.498 50.607C4.30733 50.4597 4.09067 50.3297 3.848 50.217C3.60533 50.0957 3.354 49.9787 3.094 49.866C2.79933 49.736 2.509 49.606 2.223 49.476C1.937 49.3373 1.677 49.1727 1.443 48.982C1.21767 48.7913 1.03133 48.5703 0.884 48.319C0.745333 48.0677 0.676 47.76 0.676 47.396C0.676 47.0233 0.749667 46.6983 0.897 46.421C1.053 46.135 1.25667 45.901 1.508 45.719C1.768 45.5283 2.05833 45.3897 2.379 45.303C2.70833 45.2077 3.05067 45.16 3.406 45.16C3.952 45.16 4.47633 45.2683 4.979 45.485C5.48167 45.7017 5.889 46.044 6.201 46.512L5.408 47.136C5.18267 46.824 4.89233 46.5727 4.537 46.382C4.19033 46.1827 3.809 46.083 3.393 46.083C2.88167 46.083 2.483 46.2 2.197 46.434C1.91967 46.6593 1.781 46.9627 1.781 47.344C1.781 47.5607 1.82867 47.747 1.924 47.903C2.028 48.0503 2.16667 48.189 2.34 48.319C2.522 48.4403 2.73867 48.5573 2.99 48.67C3.24133 48.7827 3.523 48.9083 3.835 49.047C4.12967 49.177 4.42 49.3157 4.706 49.463C4.992 49.6103 5.24767 49.7837 5.473 49.983C5.69833 50.1823 5.88033 50.4163 6.019 50.685C6.15767 50.9537 6.227 51.2743 6.227 51.647C6.227 52.089 6.149 52.4703 5.993 52.791C5.84567 53.1117 5.642 53.376 5.382 53.584C5.122 53.792 4.81867 53.9437 4.472 54.039C4.134 54.1343 3.77 54.182 3.38 54.182C3.08533 54.182 2.79067 54.1473 2.496 54.078C2.21 54.0173 1.93267 53.9263 1.664 53.805C1.404 53.6837 1.16133 53.5363 0.936 53.363C0.719333 53.181 0.537333 52.9773 0.39 52.752L1.209 52.141ZM8.56213 47.734V51.777C8.56213 52.323 8.68779 52.7217 8.93913 52.973C9.19046 53.2157 9.56313 53.337 10.0571 53.337C10.3778 53.337 10.6941 53.272 11.0061 53.142C11.3268 53.0033 11.5868 52.8387 11.7861 52.648V47.864L12.8001 47.734V54H11.8771L11.8121 53.519C11.5608 53.7097 11.2878 53.8613 10.9931 53.974C10.6985 54.0867 10.3301 54.143 9.88813 54.143C9.07346 54.143 8.47979 53.9437 8.10713 53.545C7.74313 53.1463 7.56112 52.5397 7.56112 51.725V47.864L8.56213 47.734ZM14.5952 54V47.864L15.5052 47.734L15.5832 48.345C15.7479 48.1717 15.9602 48.0113 16.2202 47.864C16.4802 47.7167 16.7446 47.643 17.0132 47.643C17.2039 47.643 17.3772 47.656 17.5332 47.682C17.6979 47.708 17.8236 47.734 17.9102 47.76L17.7282 48.683C17.5116 48.5877 17.2386 48.54 16.9092 48.54C16.6579 48.54 16.4152 48.6093 16.1812 48.748C15.9559 48.8867 15.7609 49.0297 15.5962 49.177V54H14.5952ZM20.6676 54C20.0956 52.9773 19.5842 51.9503 19.1336 50.919C18.6916 49.879 18.3059 48.8607 17.9766 47.864L18.9776 47.734C19.2029 48.4967 19.4672 49.2637 19.7706 50.035C20.0739 50.8063 20.4422 51.66 20.8756 52.596C21.3002 51.6773 21.6599 50.8323 21.9546 50.061C22.2579 49.281 22.5179 48.5487 22.7346 47.864L23.7746 47.734C23.4106 48.7567 23.0119 49.788 22.5786 50.828C22.1452 51.8593 21.6296 52.9167 21.0316 54H20.6676ZM25.3008 50.841C25.3008 51.621 25.4785 52.232 25.8338 52.674C26.1892 53.116 26.7048 53.337 27.3808 53.337C27.7708 53.337 28.1002 53.2417 28.3688 53.051C28.6375 52.8603 28.8542 52.6263 29.0188 52.349L29.6818 52.791C29.4565 53.181 29.1618 53.506 28.7978 53.766C28.4425 54.0173 27.9615 54.143 27.3548 54.143C26.8868 54.143 26.4665 54.0737 26.0938 53.935C25.7212 53.7877 25.4005 53.5797 25.1318 53.311C24.8718 53.0337 24.6682 52.6913 24.5208 52.284C24.3822 51.8767 24.3128 51.4043 24.3128 50.867C24.3128 50.373 24.3778 49.931 24.5078 49.541C24.6465 49.1423 24.8328 48.8043 25.0668 48.527C25.3095 48.241 25.5998 48.0243 25.9378 47.877C26.2845 47.721 26.6658 47.643 27.0818 47.643C27.5412 47.643 27.9398 47.721 28.2778 47.877C28.6245 48.033 28.9105 48.254 29.1358 48.54C29.3612 48.8173 29.5302 49.1553 29.6428 49.554C29.7555 49.944 29.8118 50.373 29.8118 50.841H25.3008ZM28.6808 50.048C28.6722 49.7793 28.6202 49.5453 28.5248 49.346C28.4295 49.138 28.3082 48.969 28.1608 48.839C28.0135 48.7003 27.8445 48.6007 27.6538 48.54C27.4632 48.4707 27.2725 48.436 27.0818 48.436C26.6658 48.436 26.3062 48.5617 26.0028 48.813C25.7082 49.0557 25.5045 49.4673 25.3918 50.048H28.6808ZM30.5486 47.864L31.5236 47.734C31.6969 48.4967 31.9396 49.3243 32.2516 50.217C32.5722 51.101 32.9232 51.9633 33.3046 52.804C33.5992 52.0413 33.8939 51.2397 34.1886 50.399C34.4919 49.5497 34.7432 48.7047 34.9426 47.864L35.9566 47.734C35.8352 48.2193 35.6922 48.722 35.5276 49.242C35.3716 49.7533 35.2026 50.2647 35.0206 50.776C34.8386 51.2873 34.6479 51.7943 34.4486 52.297C34.2492 52.7997 34.0499 53.2763 33.8506 53.727C33.6166 54.2643 33.3869 54.7063 33.1616 55.053C32.9362 55.4083 32.6936 55.69 32.4336 55.898C32.1822 56.106 31.9049 56.249 31.6016 56.327C31.2982 56.4137 30.9472 56.457 30.5486 56.457L30.5096 55.651C30.8302 55.625 31.1032 55.5687 31.3286 55.482C31.5539 55.3953 31.7489 55.2783 31.9136 55.131C32.0869 54.9837 32.2386 54.8017 32.3686 54.585C32.5072 54.377 32.6459 54.1343 32.7846 53.857C32.2906 52.8517 31.8486 51.8377 31.4586 50.815C31.0772 49.7923 30.7739 48.8087 30.5486 47.864Z" fill="#004719"/>
<path d="M29 9.04762V28.0476C29 33.5486 24.5273 38 19 38C13.4727 38 9 33.5486 9 28.0476V7.2381C9 3.23905 12.2545 0 16.2727 0C20.2909 0 23.5455 3.23905 23.5455 7.2381V26.2381C23.5455 27.4379 23.0666 28.5885 22.2141 29.4369C21.3617 30.2853 20.2055 30.7619 19 30.7619C17.7945 30.7619 16.6383 30.2853 15.7859 29.4369C14.9334 28.5885 14.4545 27.4379 14.4545 26.2381V9.04762H16.2727V26.2381C16.2727 26.958 16.5601 27.6484 17.0715 28.1574C17.583 28.6664 18.2767 28.9524 19 28.9524C19.7233 28.9524 20.417 28.6664 20.9285 28.1574C21.4399 27.6484 21.7273 26.958 21.7273 26.2381V7.2381C21.7273 5.79835 21.1526 4.41757 20.1297 3.39952C19.1067 2.38146 17.7194 1.80952 16.2727 1.80952C14.8261 1.80952 13.4387 2.38146 12.4158 3.39952C11.3929 4.41757 10.8182 5.79835 10.8182 7.2381V28.0476C10.8182 30.2072 11.6802 32.2784 13.2146 33.8055C14.749 35.3326 16.83 36.1905 19 36.1905C21.17 36.1905 23.251 35.3326 24.7854 33.8055C26.3198 32.2784 27.1818 30.2072 27.1818 28.0476V9.04762H29Z" fill="#004719"/>
</svg>
